{"accessors" : [{"bufferView" : 0, "byteOffset" : 0, "componentType" : 5123, "count" : 1152, "type" : "SCALAR", "max" : [957], "min" : [0]}, {"bufferView" : 1, "byteOffset" : 0, "componentType" : 5126, "count" : 958, "type" : "VEC3", "max" : [1.6856257915496826, 0.6680527329444885, 1.6087850332260132], "min" : [-1.6719167232513428, -0.3217395544052124, -1.673272967338562], "name" : "POSITION"}, {"bufferView" : 1, "byteOffset" : 12, "componentType" : 5126, "count" : 958, "type" : "VEC3", "max" : [0.9933304190635681, 0.9999481439590454, 0.965933084487915], "min" : [-0.999504804611206, -0.08019939064979553, -0.9978089928627014], "name" : "NORMAL"}, {"bufferView" : 1, "byteOffset" : 24, "componentType" : 5126, "count" : 958, "type" : "VEC2", "max" : [1.0000003576278687, 1.5125811100006104], "min" : [0, 0.9986051321029663], "name" : "TEXCOORD_0"}, {"bufferView" : 0, "byteOffset" : 2304, "componentType" : 5123, "count" : 2304, "type" : "SCALAR", "max" : [1917], "min" : [0]}, {"bufferView" : 2, "byteOffset" : 0, "componentType" : 5126, "count" : 1918, "type" : "VEC3", "max" : [1.6711366176605225, 0.6680527329444885, 1.6692599058151245], "min" : [-1.6719167232513428, -0.6600000262260437, -1.673272967338562], "name" : "POSITION"}, {"bufferView" : 2, "byteOffset" : 12, "componentType" : 5126, "count" : 1918, "type" : "VEC3", "max" : [1.0000044107437134, 0.9999481439590454, 1.0000044107437134], "min" : [-1.0000042915344238, -0.9999093413352966, -1.0000044107437134], "name" : "NORMAL"}, {"bufferView" : 2, "byteOffset" : 24, "componentType" : 5126, "count" : 1918, "type" : "VEC2", "max" : [1.0000004768371582, 2.000023365020752], "min" : [0, 0.9986051321029663], "name" : "TEXCOORD_0"}], "asset" : {"generator" : "Aspose.3D 24.1.0", "version" : "2.0"}, "buffers" : [{"uri" : "data:application/octet-stream;base64,", "byteLength" : 117516}], "bufferViews" : [{"buffer" : 0, "byteOffset" : 0, "byteLength" : 6912, "target" : 34963}, {"buffer" : 0, "byteOffset" : 6916, "byteLength" : 36864, "byteStride" : 32, "target" : 34962}, {"buffer" : 0, "byteOffset" : 43784, "byteLength" : 73728, "byteStride" : 32, "target" : 34962}], "materials" : [{"name" : "Material.002", "pbrMetallicRoughness" : {"baseColorFactor" : [0.8006381988525391, 0.04870487004518509, 0.3828781843185425, 1], "metallicFactor" : 0, "roughnessFactor" : 0.5}, "emissiveFactor" : [0, 0, 0], "alphaMode" : "OPAQUE", "doubleSided" : true}, {"name" : "Material.001", "pbrMetallicRoughness" : {"baseColorFactor" : [0.8797711730003357, 0.4396378993988037, 0.13285884261131287, 1], "metallicFactor" : 0, "roughnessFactor" : 0.5}, "emissiveFactor" : [0, 0, 0], "alphaMode" : "OPAQUE", "doubleSided" : true}], "meshes" : [{"primitives" : [{"attributes" : {"POSITION" : 1, "NORMAL" : 2, "TEXCOORD_0" : 3}, "indices" : 0, "material" : 0, "mode" : 4}]}, {"primitives" : [{"attributes" : {"POSITION" : 5, "NORMAL" : 6, "TEXCOORD_0" : 7}, "indices" : 4, "material" : 1, "mode" : 4}]}], "nodes" : [{"mesh" : 0, "name" : "icing"}, {"mesh" : 1, "name" : "donut.001"}], "scene" : 0, "scenes" : [{"nodes" : [0, 1]}]}